<?xml version="1.0" encoding="UTF-8"?>
<svg width="64px" height="64px" viewBox="0 0 64 64" version="1.1" xmlns="http://www.w3.org/2000/svg" xmlns:xlink="http://www.w3.org/1999/xlink">
    <title>favicon</title>
    <g id="favicon" stroke="none" stroke-width="1" fill="none" fill-rule="evenodd">
        <g id="Group" transform="translate(0, 6)" fill-rule="nonzero">
            <path d="M18.1333333,0 C8.11856987,0 0,8.11899324 0,18.1337567 L0,33.06709 C0,40.6833158 4.75964427,47.4877431 11.9138773,50.0999921 C19.0681104,52.712241 27.0922604,50.5755294 32,44.7513567 C36.9077396,50.5755294 44.9318896,52.712241 52.0861227,50.0999921 C59.2403557,47.4877431 64,40.6833158 64,33.06709 L64,18.1337567 C64,10.5175309 59.2403557,3.71310364 52.0861227,1.10085468 C44.9318896,-1.51139428 36.9077396,0.625317379 32,6.44949004 C28.557947,2.356214 23.4814742,-0.00473633297 18.1333333,0" id="Path" fill="#FF8B00"/>
            <path d="M18.1333325,2.13375671 C9.29677734,2.13375671 2.13333254,9.29720071 2.13333254,18.1337567 L2.13333254,33.06709 C2.13106931,40.3135287 6.99930348,46.6567964 13.9997364,48.5289122 C21.0001693,50.4010279 28.3848417,47.3345376 32,41.05429 C35.6151583,47.3345376 42.9998307,50.4010279 50.0002636,48.5289122 C57.0006965,46.6567964 61.8689307,40.3135287 61.8666675,33.06709 L61.8666675,18.1337567 C61.8689307,10.887318 57.0006965,4.54405037 50.0002636,2.67193459 C42.9998307,0.799818813 35.6151583,3.86630919 32,10.1465567 C29.1442695,5.18706785 23.8562453,2.1314034 18.1333325,2.13375671" id="Path" fill="#FAFAEF"/>
            <path d="M29.8666667,18.1337567 C29.8666667,15.22389 30.6432,12.49749 32,10.1465567 C30.1679712,6.97365567 27.3059794,4.52267058 23.8890667,3.20042337 L23.5328,3.20042337 C25.8666667,4.59989004 27.6672,10.1337567 27.6672,12.8004234 L27.6672,38.66709 C27.6672,41.6004234 27.3322667,45.26549 23.5349333,48.13269 C27.104366,46.847577 30.1033363,44.3398694 32,41.05429 C30.5981832,38.6261051 29.862275,35.8708649 29.8666667,33.06709 L29.8666667,18.1337567 Z M61.8666667,18.1337567 C61.8666667,11.5170709 57.7954795,5.58235971 51.6224,3.20042337 L51.2661333,3.20042337 C54.7989333,5.53429004 57.4656,9.73482337 57.4656,12.8665567 L57.4656,38.4004234 C57.4656,41.3337567 55.0677333,45.26549 51.2682667,48.13269 C57.6261882,45.8503585 61.8668617,39.8222513 61.8666667,33.06709 L61.8666667,18.1337567 Z" id="Shape" fill="#FF5700"/>
            <path d="M11.8656,12.8004234 C7.74187387,12.8004234 4.39893333,16.1433639 4.39893333,20.26709 L4.39893333,30.9337567 C4.39893333,33.6013398 5.82207191,36.0662883 8.13226663,37.4000798 C10.4424614,38.7338714 13.2887386,38.7338714 15.5989334,37.4000798 C17.9091281,36.0662883 19.3322667,33.6013398 19.3322667,30.9337567 L19.3322667,20.26709 C19.3322667,16.1433639 15.9893261,12.8004234 11.8656,12.8004234 M39.4666667,12.8004234 C35.3429405,12.8004234 32,16.1433639 32,20.26709 L32,30.9337567 C32,33.6013398 33.4231385,36.0662883 35.7333333,37.4000799 C38.043528,38.7338715 40.8898053,38.7338715 43.2000001,37.4000799 C45.5101948,36.0662883 46.9333333,33.6013398 46.9333333,30.9337567 L46.9333333,20.26709 C46.9333333,16.1433639 43.5903928,12.8004234 39.4666667,12.8004234" id="Shape" fill="#0F0A09"/>
            <path d="M16.5077333,21.0372234 C17.3013333,20.37589 17.2650667,19.0276234 16.4266667,18.02069 C15.5882667,17.0137567 14.2677333,16.73429 13.4741333,17.39349 C12.6826667,18.05269 12.7189333,19.40309 13.5573333,20.4100234 C14.3936,21.4148234 15.7162667,21.6964234 16.5077333,21.0372234 M44.2346667,21.0372234 C45.0261333,20.37589 44.9898667,19.0276234 44.1514667,18.02069 C43.3152,17.0137567 41.9925333,16.73429 41.2010667,17.39349 C40.4074667,18.05269 40.4458667,19.40309 41.2821333,20.4100234 C42.1205333,21.4148234 43.4410667,21.6964234 44.2346667,21.0372234" id="Shape" fill="#F4F4F4"/>
        </g>
    </g>
</svg>